<?xml version="1.0" encoding="utf-8"?>
<!-- Generator: Adobe Illustrator 23.0.6, SVG Export Plug-In . SVG Version: 6.00 Build 0)  -->
<svg version="1.1" id="Capa_1" xmlns="http://www.w3.org/2000/svg" xmlns:xlink="http://www.w3.org/1999/xlink" x="0px" y="0px"
	 viewBox="0 0 512 512" style="enable-background:new 0 0 512 512;" xml:space="preserve">
<g>
	<g>
		<path d="M240,64h-96c-8.8,0-16,7.2-16,16s7.2,16,16,16h96c8.8,0,16-7.2,16-16S248.8,64,240,64z"/>
	</g>
</g>
<g>
	<g>
		<path d="M240,128h-96c-8.8,0-16,7.2-16,16s7.2,16,16,16h96c8.8,0,16-7.2,16-16S248.8,128,240,128z"/>
	</g>
</g>
<g>
	<g>
		<path d="M208,192h-64c-8.8,0-16,7.2-16,16s7.2,16,16,16h64c8.8,0,16-7.2,16-16S216.8,192,208,192z"/>
	</g>
</g>
<path d="M489.3,188.3c-28.3-38.3-66.9-28.4-88.8-22.2c2-15.2,8.2-37.7,27.5-59.5c5.9-6.6,5.2-16.7-1.4-22.6
	c-6.6-5.8-16.7-5.2-22.6,1.4c-5.2,5.9-9.6,11.8-13.4,17.7c-2.3-4.1-5-8-8.2-11.6C367.1,73.8,345,64,320,64c-8.8,0-16,7.2-16,16
	c0,25,9.8,47.2,27.5,62.4c11.1,9.6,24.4,15.2,37.9,16.8c-0.4,2.4-0.8,4.9-1,7.1c-21.7-6.3-61.1-16.8-89.6,22
	c-26.6,36.1-30,82.2-9.2,123.5c22.1,43.9,67,72.2,114.4,72.2s92.3-28.3,114.5-72.2C519.3,270.6,515.9,224.4,489.3,188.3z
	 M352.4,118.2c-5.9-5.1-10.2-11.5-13-18.8c7.4,2.8,13.8,7.2,18.8,13c3.6,4.2,6.3,8.9,8,13.8C361.3,124.5,356.5,121.9,352.4,118.2z
	 M469.9,297.4C453.2,330.6,419.4,352,384,352s-69.2-21.4-85.9-54.6c-15.5-30.7-13.2-63.6,6.4-90.1c8.4-11.3,17.4-15.3,28.2-15.3
	c8.2,0,17.3,2.3,27.9,5.3c5.6,1.6,10.8,1.9,16,2.4c2.3,1.2,4.8,2.1,7.5,2.1c0.6,0,1.3,0,2-0.1c2.3-0.3,4.3-1.1,6.2-2.1
	c5.1-0.5,10-0.8,15.4-2.3c24.3-7,41.3-10,56,10C483.1,233.9,485.4,266.7,469.9,297.4z"/>
<g>
	<path d="M384,394c-2,0-3.9-0.1-5.9-0.1V479H112.9V33h265.2v40.6c4.3,3.4,8.2,7.2,11.8,11.4c0.2,0.3,0.5,0.6,0.7,0.8
		c1.9-2.4,3.8-4.7,5.8-7c3.8-4.3,9-7.2,14.6-8.3V29.9c0-16.5-13.4-29.9-29.9-29.9H109.8C93.3,0,79.9,13.4,79.9,29.9v452.2
		c0,16.5,13.4,29.9,29.9,29.9h271.4c16.5,0,29.9-13.4,29.9-29.9v-91C402.3,393,393.2,394,384,394z"/>
</g>
</svg>
