<?xml version="1.0" encoding="utf-8"?>
<!-- Generator: Adobe Illustrator 23.0.6, SVG Export Plug-In . SVG Version: 6.00 Build 0)  -->
<svg version="1.1" id="Lag_1" xmlns="http://www.w3.org/2000/svg" xmlns:xlink="http://www.w3.org/1999/xlink" x="0px" y="0px"
	 viewBox="0 0 566.93 566.93" style="enable-background:new 0 0 566.93 566.93;" xml:space="preserve">
<style type="text/css">
	.st0{fill:#010202;}
</style>
<g id="indkobsliste" transform="translate(-0.017 -56.817)">
	<path class="st0" d="M536.47,173.07c-0.96-0.17-1.92-0.25-2.89-0.26H107.69c-0.64-0.02-1.29,0.02-1.92,0.12l-7.66-63.58
		c-0.67-5.61-4.42-9.99-9.16-10.71L19.92,88.05C14.13,87.11,8.79,91.92,8,98.79C8,98.83,8,98.86,7.99,98.9
		c-0.76,6.92,3.33,13.28,9.16,14.25l61.04,9.33l15.54,128.54l27.05,232.93c0.71,6.24,5.23,10.89,10.55,10.85h367.01
		c5.83,0.01,10.56-5.58,10.57-12.48c0.01-6.9-4.71-12.51-10.54-12.52c-0.01,0-0.8,0-0.81,0H141.38l-4.56-39h371.81
		c10.06,0.01,18.58-8.79,19.94-20.59l24.8-210.19C554.98,187.06,547.42,174.99,536.47,173.07z M507.43,404.82H133.87l-24.5-207
		h422.55L507.43,404.82z"/>
	<path id="Path_36" class="st0" d="M208.38,506.65c-19.67,0-35.61,18.88-35.61,42.18c0,23.29,15.94,42.18,35.61,42.18
		S244,572.13,244,548.83l0,0C243.96,525.55,228.04,506.69,208.38,506.65z M208.38,565.76c-7.89,0-14.29-7.58-14.29-16.93
		c0-9.35,6.4-16.93,14.29-16.93c7.89,0,14.29,7.58,14.29,16.93C222.68,558.18,216.28,565.76,208.38,565.76L208.38,565.76z"/>
	<path id="Path_37" class="st0" d="M429.52,506.65c-19.67,0-35.61,18.88-35.61,42.18c0,23.3,15.94,42.18,35.61,42.18
		c19.67,0,35.61-18.88,35.61-42.18v0C465.1,525.55,449.17,506.69,429.52,506.65z M429.52,565.76c-7.89,0-14.29-7.58-14.29-16.93
		c0-9.35,6.4-16.93,14.29-16.93c7.89,0,14.29,7.58,14.29,16.93C443.81,558.18,437.41,565.76,429.52,565.76
		C429.52,565.76,429.52,565.76,429.52,565.76z"/>
</g>
</svg>
