<?xml version="1.0" encoding="utf-8"?>
<!-- Generator: Adobe Illustrator 23.0.6, SVG Export Plug-In . SVG Version: 6.00 Build 0)  -->
<svg version="1.1" id="Lag_1" xmlns="http://www.w3.org/2000/svg" xmlns:xlink="http://www.w3.org/1999/xlink" x="0px" y="0px"
	 viewBox="0 0 566.93 566.93" style="enable-background:new 0 0 566.93 566.93;" xml:space="preserve">
<style type="text/css">
	.st0{fill:#3EA05C;}
</style>
<g>
	<path class="st0" d="M536.45,116.26c-0.96-0.17-1.92-0.25-2.89-0.26H107.68c-0.64-0.02-1.29,0.02-1.92,0.12l-7.66-63.58
		c-0.67-5.61-4.42-9.99-9.16-10.71L19.91,31.23c-5.8-0.93-11.13,3.88-11.92,10.74c0,0.04-0.01,0.07-0.01,0.11
		c-0.76,6.92,3.33,13.28,9.16,14.25l61.04,9.33l15.54,128.54l27.05,232.93c0.71,6.24,5.23,10.89,10.55,10.85h367.01
		c5.83,0.01,10.56-5.58,10.57-12.48c0.01-6.9-4.71-12.51-10.54-12.52c-0.01,0-0.8,0-0.81,0H141.36l-4.56-39h371.81
		c10.06,0.01,18.58-8.79,19.94-20.59l24.8-210.19C554.97,130.24,547.4,118.17,536.45,116.26z"/>
	<path class="st0" d="M208.37,449.84c-19.67,0-35.61,18.88-35.61,42.18c0,23.29,15.94,42.18,35.61,42.18s35.61-18.88,35.61-42.18
		C243.95,468.74,228.02,449.87,208.37,449.84z M208.37,508.94c-7.89,0-14.29-7.58-14.29-16.93c0-9.35,6.4-16.93,14.29-16.93
		c7.89,0,14.29,7.58,14.29,16.93C222.66,501.36,216.26,508.94,208.37,508.94z"/>
	<path class="st0" d="M429.5,449.84c-19.67,0-35.61,18.88-35.61,42.18c0,23.3,15.94,42.18,35.61,42.18
		c19.67,0,35.61-18.88,35.61-42.18v0C465.08,468.74,449.16,449.87,429.5,449.84z M429.5,508.94
		C429.5,508.94,429.5,508.94,429.5,508.94c-7.89,0-14.29-7.58-14.29-16.93c0-9.35,6.4-16.93,14.29-16.93
		c7.89,0,14.29,7.58,14.29,16.93C443.79,501.36,437.4,508.94,429.5,508.94z"/>
</g>
</svg>
