<?xml version="1.0" encoding="utf-8"?>
<!-- Generator: Adobe Illustrator 23.0.6, SVG Export Plug-In . SVG Version: 6.00 Build 0)  -->
<svg version="1.1" id="Lag_1" xmlns="http://www.w3.org/2000/svg" xmlns:xlink="http://www.w3.org/1999/xlink" x="0px" y="0px"
	 viewBox="0 0 566.93 566.93" style="enable-background:new 0 0 566.93 566.93;" xml:space="preserve">
<style type="text/css">
	.st0{fill:none;stroke:#000000;stroke-width:16;}
	.st1{fill:#010202;stroke:#000000;stroke-width:11.0922;stroke-linecap:round;stroke-linejoin:round;}
	.st2{fill:#010202;}
</style>
<path class="st0" d="M392.45,167.07v67.06v264.26c0,6.6-5.4,12-12,12H107.69c-6.6,0-12-5.4-12-12V53.31c0-6.6,5.4-12,12-12h272.76
	c6.6,0,12,5.4,12,12V167.07"/>
<path class="st1" d="M205.95,400.21c1.08,0,155.03-0.17,155.03-0.17L205.95,400.21z"/>
<path class="st1" d="M205.95,270.85c1.08,0,155.03-0.17,155.03-0.17L205.95,270.85z"/>
<path class="st1" d="M205.95,141.48c1.08,0,155.03-0.17,155.03-0.17L205.95,141.48z"/>
<g>
	<g>
		<path class="st2" d="M127.83,146.74c8.15,9.83,15.92,20.05,23.27,30.65"/>
		<g>
			<path d="M124.38,150.2c2.01,2.43,4,4.88,5.97,7.35c0.98,1.24,1.96,2.48,2.93,3.73c0.06,0.08,0.8,1.03,0.49,0.63
				c-0.28-0.36,0.51,0.66,0.49,0.63c0.48,0.63,0.96,1.26,1.44,1.89c3.84,5.06,7.57,10.21,11.19,15.42c1.46,2.1,4.35,3.26,6.69,1.75
				c2.08-1.34,3.31-4.44,1.75-6.69c-7.56-10.88-15.58-21.44-24.03-31.64c-1.64-1.98-5.24-1.82-6.91,0
				C122.45,145.39,122.63,148.09,124.38,150.2L124.38,150.2z"/>
		</g>
	</g>
	<g>
		<path class="st2" d="M187.18,104.69c-16.87,16.73-34.91,66.25-35.57,72.62"/>
		<g>
			<path d="M183.72,101.24c-4.11,4.1-7.51,8.96-10.58,13.88c-3.47,5.56-6.55,11.36-9.41,17.25c-5.36,11.03-10.13,22.42-14.1,34.03
				c-1.21,3.55-2.51,7.16-2.92,10.91c-0.28,2.55,2.45,5,4.89,4.89c2.89-0.13,4.59-2.16,4.89-4.89c0.05-0.44-0.3,1.69-0.08,0.7
				c0.05-0.24,0.1-0.49,0.15-0.73c0.14-0.62,0.3-1.23,0.47-1.83c0.47-1.7,1.01-3.38,1.56-5.05c1.61-4.85,3.42-9.64,5.32-14.38
				c0.57-1.43,1.15-2.85,1.74-4.26c0.14-0.33,0.28-0.66,0.41-0.98c0.25-0.6-0.39,0.91-0.13,0.32c0.06-0.14,0.12-0.28,0.18-0.43
				c0.33-0.76,0.65-1.53,0.99-2.29c1.32-3.03,2.68-6.04,4.1-9.02c2.77-5.83,5.74-11.58,9.06-17.12c1.68-2.81,3.46-5.56,5.38-8.2
				c0.24-0.33,0.48-0.65,0.72-0.97c0.11-0.14,0.21-0.28,0.32-0.42c0.34-0.46-0.79,1.01-0.2,0.26c0.45-0.56,0.9-1.13,1.36-1.68
				c0.89-1.06,1.82-2.08,2.8-3.06c1.81-1.81,1.94-5.13,0-6.91C188.68,99.44,185.66,99.31,183.72,101.24L183.72,101.24z"/>
		</g>
	</g>
</g>
<g>
	<g>
		<path class="st2" d="M133.96,395.61c8.15,9.83,15.92,20.05,23.27,30.65"/>
		<g>
			<path d="M130.5,399.07c2.01,2.43,4,4.88,5.97,7.35c0.98,1.24,1.96,2.48,2.93,3.73c0.06,0.08,0.8,1.03,0.49,0.63
				c-0.28-0.36,0.51,0.66,0.49,0.63c0.48,0.63,0.96,1.26,1.44,1.89c3.84,5.06,7.57,10.21,11.19,15.42c1.46,2.1,4.35,3.26,6.69,1.75
				c2.08-1.34,3.31-4.44,1.75-6.69c-7.56-10.88-15.58-21.44-24.03-31.64c-1.64-1.98-5.24-1.82-6.91,0
				C128.57,394.26,128.75,396.96,130.5,399.07L130.5,399.07z"/>
		</g>
	</g>
	<g>
		<path class="st2" d="M193.3,353.56c-16.87,16.73-34.91,66.25-35.57,72.62"/>
		<g>
			<path d="M189.84,350.11c-4.11,4.1-7.51,8.96-10.58,13.88c-3.47,5.56-6.55,11.36-9.41,17.25c-5.36,11.03-10.13,22.42-14.1,34.03
				c-1.21,3.55-2.51,7.16-2.92,10.91c-0.28,2.55,2.45,5,4.89,4.89c2.89-0.13,4.59-2.16,4.89-4.89c0.05-0.44-0.3,1.69-0.08,0.7
				c0.05-0.24,0.1-0.49,0.15-0.73c0.14-0.62,0.3-1.23,0.47-1.83c0.47-1.7,1.01-3.38,1.56-5.05c1.61-4.85,3.42-9.64,5.32-14.38
				c0.57-1.43,1.15-2.85,1.74-4.26c0.14-0.33,0.28-0.66,0.41-0.98c0.25-0.6-0.39,0.91-0.13,0.32c0.06-0.14,0.12-0.28,0.18-0.43
				c0.33-0.76,0.65-1.53,0.99-2.29c1.32-3.03,2.68-6.04,4.1-9.02c2.77-5.83,5.74-11.58,9.06-17.12c1.68-2.81,3.46-5.56,5.38-8.2
				c0.24-0.33,0.48-0.65,0.72-0.97c0.11-0.14,0.21-0.28,0.32-0.42c0.34-0.46-0.79,1.01-0.2,0.26c0.45-0.56,0.9-1.13,1.36-1.68
				c0.89-1.06,1.82-2.08,2.8-3.06c1.81-1.81,1.94-5.13,0-6.91C194.8,348.31,191.78,348.18,189.84,350.11L189.84,350.11z"/>
		</g>
	</g>
</g>
<g>
	<g>
		<path class="st2" d="M127.94,274.55c8.15,9.83,15.92,20.05,23.27,30.65"/>
		<g>
			<path d="M124.48,278c2.01,2.43,4,4.88,5.97,7.35c0.98,1.24,1.96,2.48,2.93,3.73c0.06,0.08,0.8,1.03,0.49,0.63
				c-0.28-0.36,0.51,0.66,0.49,0.63c0.48,0.63,0.96,1.26,1.44,1.89c3.84,5.06,7.57,10.21,11.19,15.42c1.46,2.1,4.35,3.26,6.69,1.75
				c2.08-1.34,3.31-4.44,1.75-6.69c-7.56-10.88-15.58-21.44-24.03-31.64c-1.64-1.98-5.24-1.82-6.91,0
				C122.55,273.19,122.73,275.89,124.48,278L124.48,278z"/>
		</g>
	</g>
	<g>
		<path class="st2" d="M187.28,232.5c-16.87,16.73-34.91,66.25-35.57,72.62"/>
		<g>
			<path d="M183.83,229.04c-4.11,4.1-7.51,8.96-10.58,13.88c-3.47,5.56-6.55,11.36-9.41,17.25c-5.36,11.03-10.13,22.42-14.1,34.03
				c-1.21,3.55-2.51,7.16-2.92,10.91c-0.28,2.55,2.45,5,4.89,4.89c2.89-0.13,4.59-2.16,4.89-4.89c0.05-0.44-0.3,1.69-0.08,0.7
				c0.05-0.24,0.1-0.49,0.15-0.73c0.14-0.62,0.3-1.23,0.47-1.83c0.47-1.7,1.01-3.38,1.56-5.05c1.61-4.85,3.42-9.64,5.32-14.38
				c0.57-1.43,1.15-2.85,1.74-4.26c0.14-0.33,0.28-0.66,0.41-0.98c0.25-0.6-0.39,0.91-0.13,0.32c0.06-0.14,0.12-0.28,0.18-0.43
				c0.33-0.76,0.65-1.53,0.99-2.29c1.32-3.03,2.68-6.04,4.1-9.02c2.77-5.83,5.74-11.58,9.06-17.12c1.68-2.81,3.46-5.56,5.38-8.2
				c0.24-0.33,0.48-0.65,0.72-0.97c0.11-0.14,0.21-0.28,0.32-0.42c0.34-0.46-0.79,1.01-0.2,0.26c0.45-0.56,0.9-1.13,1.36-1.68
				c0.89-1.06,1.82-2.08,2.8-3.06c1.81-1.81,1.94-5.13,0-6.91C188.79,227.25,185.76,227.11,183.83,229.04L183.83,229.04z"/>
		</g>
	</g>
</g>
</svg>
