<?xml version="1.0" encoding="utf-8"?>
<!-- Generator: Adobe Illustrator 23.0.6, SVG Export Plug-In . SVG Version: 6.00 Build 0)  -->
<svg version="1.1" id="Lag_1" xmlns="http://www.w3.org/2000/svg" xmlns:xlink="http://www.w3.org/1999/xlink" x="0px" y="0px"
	 viewBox="0 0 566.93 566.93" style="enable-background:new 0 0 566.93 566.93;" xml:space="preserve">
<style type="text/css">
	.st0{fill:#3EA05C;stroke:#000000;stroke-miterlimit:10;}
	.st1{fill:none;stroke:#F9F9F9;stroke-width:16;}
</style>
<path class="st0" d="M174.72,517.24l-5.24-227.65c0,0-14.55-8.32-32.22-28.07s-47.82-65.49-31.19-100.83s21.83-50.94,46.78-62.37
	s38.46-25.99,62.37-18.71s39.12,14.41,39.12,14.41s9.74-16.49,31.56-30.01c21.83-13.51,39.5-22.87,61.33-22.87
	s54.05,6.24,67.57,15.59s61.33,70.69,60.29,94.59s-5.2,84.2-18.71,97.71s-51.98,47.82-51.98,47.82l3.3,209.42l-7.46,14.07
	l-208.14,5.54L174.72,517.24z"/>
<path class="st1" d="M402.63,418.48c-61.22,2.78-232.55,4.23-232.29,8.45c0.19,3,0.03,26.29,0.03,35.57c0,14.6,0,29.19,0,43.79
	c0,10.83,9.73,19.61,21.74,19.61h193.85c12.01,0,21.74-8.78,21.74-19.61V290.37c41.12-21.35,69.46-66.33,69.46-118.36
	c0-72.67-55.26-131.58-123.42-131.58c-40.78,0-76.93,21.09-99.41,53.59c-14.52-8.3-31.22-13.04-48.99-13.04
	c-55.88,0-101.18,46.67-101.18,104.25c0,44.91,27.56,83.18,66.2,97.85c0,0,0,78.35,0,142.21"/>
</svg>
