<?xml version="1.0" encoding="utf-8"?>
<!-- Generator: Adobe Illustrator 23.0.6, SVG Export Plug-In . SVG Version: 6.00 Build 0)  -->
<svg version="1.1" id="Lag_1" xmlns="http://www.w3.org/2000/svg" xmlns:xlink="http://www.w3.org/1999/xlink" x="0px" y="0px"
	 viewBox="0 0 566.93 566.93" style="enable-background:new 0 0 566.93 566.93;" xml:space="preserve">
<style type="text/css">
	.st0{fill:none;stroke:#010202;stroke-width:17.7381;}
	.st1{fill:#010202;}
</style>
<g id="man" transform="translate(0.5 0.5)">
	<path id="Path_20" class="st0" d="M281.72-22.05 M8.07,251.6 M281.72,525.26 M555.38,251.6 M281.72,508.68 M24.65,251.6
		 M281.72-5.47"/>
	<path id="Path_21" class="st1" d="M281.72,525.26c-56.8,0.05-112.18-17.7-158.37-50.75c-3.76-2.52-4.76-7.62-2.24-11.38
		c0.98-1.46,2.4-2.57,4.06-3.16c68.75-25.46,79.94-46.12,79.94-85.73c0.45-7.31-1.91-14.51-6.6-20.13
		c-10.09-14.5-16.51-31.22-18.72-48.75c-0.8-4.22-1.48-4.55-5.25-6.38c-10.04-4.84-19.29-11.81-21.71-43.58
		c-0.73-10.37,2.77-20.59,9.7-28.33c-0.96-5.47-2.54-14.9-4.1-25.19c-7.52-46.06-7.85-102.49,56.95-128.69
		c56.45-22.9,101.51-10.37,115.67,4.53c20.46,0.19,39.94,8.82,53.83,23.84c27.67,32.18,18.86,105.53,15.85,125.41
		c6.94,7.52,10.48,17.57,9.78,27.78c-2.42,32.41-11.66,39.4-21.73,44.22c-3.77,1.82-4.47,2.05-5.25,6.38
		c-2.16,17.49-8.52,34.2-18.53,48.7c-4.69,5.62-7.05,12.82-6.6,20.13c0,39.6,11.09,60.27,79.94,85.73
		c4.28,1.48,6.55,6.15,5.07,10.43c-0.58,1.67-1.68,3.11-3.14,4.11C394.05,507.56,338.59,525.33,281.72,525.26z M146,469.71
		c83.02,51.95,188.42,51.95,271.44,0c-57.62-23.66-75.7-47.5-75.7-95.44c-0.47-10.65,2.91-21.12,9.51-29.5
		c8.75-12.6,14.28-27.16,16.11-42.39c1.03-8.28,6.55-15.31,14.35-18.28c5.17-2.48,10.47-5.02,12.3-29.91
		c0-12.67-5.7-16.11-5.94-16.26c-3.15-1.79-4.88-5.31-4.39-8.9c7.26-39.05,7.72-94.47-11.29-116.62
		c-11.33-11.86-27.16-18.37-43.56-17.92c-0.74-0.03-1.48-0.12-2.21-0.27c-2.7-0.69-5.12-2.21-6.91-4.35
		c-4.51-7.73-43.81-23.27-98.02-1.33c-53.58,21.69-53.71,68.2-46.76,110.82c2.3,15.87,4.8,29.58,4.82,29.66
		c0.71,3.73-1.23,7.46-4.69,9.02l0,0c0,0-5.62,3.46-5.62,16.73c1.87,24.23,7.17,26.79,12.3,29.27c7.8,2.97,13.32,10,14.35,18.28
		c1.82,15.23,7.35,29.79,16.09,42.39c6.61,8.37,9.99,18.84,9.51,29.5C221.72,422.23,203.64,446.07,146,469.71z"/>
</g>
</svg>
