<?xml version="1.0" encoding="utf-8"?>
<!-- Generator: Adobe Illustrator 23.0.6, SVG Export Plug-In . SVG Version: 6.00 Build 0)  -->
<svg version="1.1" id="Lag_1" xmlns="http://www.w3.org/2000/svg" xmlns:xlink="http://www.w3.org/1999/xlink" x="0px" y="0px"
	 viewBox="0 0 566.93 566.93" style="enable-background:new 0 0 566.93 566.93;" xml:space="preserve">
<style type="text/css">
	.st0{fill:#3EA05C;}
</style>
<g id="man" transform="translate(0.5 0.5)">
	<path id="Path_20" class="st0" d="M281.72-22.05 M8.07,251.6 M281.72,525.26 M555.38,251.6 M281.72,508.68 M24.65,251.6
		 M281.72-5.47"/>
	<path id="Path_21" class="st0" d="M281.72,525.26c-56.8,0.05-112.18-17.7-158.37-50.75c-3.76-2.52-4.76-7.62-2.24-11.38
		c0.98-1.46,2.4-2.57,4.06-3.16c68.75-25.46,79.94-46.12,79.94-85.73c0.45-7.31-1.91-14.51-6.6-20.13
		c-10.09-14.5-16.51-31.22-18.72-48.75c-0.8-4.22-1.48-4.55-5.25-6.38c-10.04-4.84-19.29-11.81-21.71-43.58
		c-0.73-10.37,2.77-20.59,9.7-28.33c-0.96-5.47-2.54-14.9-4.1-25.19c-7.52-46.06-7.85-102.49,56.95-128.69
		c56.45-22.9,101.51-10.37,115.67,4.53c20.46,0.19,39.94,8.82,53.83,23.84c27.67,32.18,18.86,105.53,15.85,125.41
		c6.94,7.52,10.48,17.57,9.78,27.78c-2.42,32.41-11.66,39.4-21.73,44.22c-3.77,1.82-4.47,2.05-5.25,6.38
		c-2.16,17.49-8.52,34.2-18.53,48.7c-4.69,5.62-7.05,12.82-6.6,20.13c0,39.6,11.09,60.27,79.94,85.73
		c4.28,1.48,6.55,6.15,5.07,10.43c-0.58,1.67-1.68,3.11-3.14,4.11C394.05,507.56,338.59,525.33,281.72,525.26z"/>
</g>
</svg>
