<svg xmlns="http://www.w3.org/2000/svg" width="31.563" height="24.805" viewBox="0 0 31.563 24.805">
  <g id="recipe" transform="translate(3.221 -3.636)">
    <g id="Group_7" data-name="Group 7" transform="translate(-3.221 3.636)">
      <g id="Group_6" data-name="Group 6" transform="translate(0 0)">
        <path id="Path_17" data-name="Path 17" d="M133.941,121.777a6.819,6.819,0,0,0-4.48,1.657,6.884,6.884,0,0,0-8.96,0,6.776,6.776,0,1,0-5.1,11.8v10.159a1.193,1.193,0,0,0,1.193,1.193h16.771a1.193,1.193,0,0,0,1.193-1.193V135.23a6.737,6.737,0,0,0-.619-13.453Zm.082,11.094a1.886,1.886,0,0,0-1.85,1.873V144.2h-3.281v-5.556a1.193,1.193,0,0,0-2.386,0V144.2h-3.051v-5.556a1.193,1.193,0,0,0-2.386,0V144.2h-3.28v-9.453a1.886,1.886,0,0,0-1.849-1.873,4.355,4.355,0,1,1,3.232-7.418,1.889,1.889,0,0,0,2.658,0,4.492,4.492,0,0,1,6.3,0,1.889,1.889,0,0,0,2.658,0,4.446,4.446,0,0,1,3.151-1.291,4.354,4.354,0,1,1,.082,8.707Z" transform="translate(-109.2 -121.777)"/>
      </g>
    </g>
  </g>
</svg>
