<?xml version="1.0" encoding="utf-8"?>
<!-- Generator: Adobe Illustrator 23.0.6, SVG Export Plug-In . SVG Version: 6.00 Build 0)  -->
<svg version="1.1" id="Lag_1" xmlns="http://www.w3.org/2000/svg" xmlns:xlink="http://www.w3.org/1999/xlink" x="0px" y="0px"
	 viewBox="0 0 566.93 566.93" style="enable-background:new 0 0 566.93 566.93;" xml:space="preserve">
<style type="text/css">
	.st0{fill:none;stroke:#000000;stroke-width:16;stroke-miterlimit:10;}
</style>
<path class="st0" d="M402.63,418.48c-61.22,2.78-232.55,4.23-232.29,8.45c0.19,3,0.03,26.29,0.03,35.57c0,14.6,0,29.19,0,43.79
	c0,10.83,9.73,19.61,21.74,19.61h193.85c12.01,0,21.74-8.78,21.74-19.61V290.37c41.12-21.35,69.46-66.33,69.46-118.36
	c0-72.67-55.26-131.58-123.42-131.58c-40.78,0-76.93,21.09-99.41,53.59c-14.52-8.3-31.22-13.04-48.99-13.04
	c-55.88,0-101.18,46.67-101.18,104.25c0,44.91,27.56,83.18,66.2,97.85c0,0,0,78.35,0,142.21"/>
</svg>
