<svg xmlns="http://www.w3.org/2000/svg" width="27.7" height="27.7" viewBox="0 0 27.7 27.7">
  <g id="man" transform="translate(0.5 0.5)">
    <path id="Path_20" data-name="Path 20" d="M13.35,26.7A13.35,13.35,0,1,1,26.7,13.35,13.365,13.365,0,0,1,13.35,26.7Zm0-25.891A12.541,12.541,0,1,0,25.891,13.35,12.555,12.555,0,0,0,13.35.809Z" fill="none" stroke="#000" stroke-width="1"/>
    <path id="Path_21" data-name="Path 21" d="M14.637,27.652a13.254,13.254,0,0,1-7.726-2.476A.4.4,0,0,1,7,24.467c3.354-1.242,3.9-2.25,3.9-4.182a1.4,1.4,0,0,0-.322-.982,5.33,5.33,0,0,1-.913-2.378c-.039-.206-.072-.222-.256-.311-.49-.236-.941-.576-1.059-2.126a1.874,1.874,0,0,1,.473-1.382c-.047-.267-.124-.727-.2-1.229-.367-2.247-.383-5,2.778-6.278,2.754-1.117,4.952-.506,5.643.221a3.623,3.623,0,0,1,2.626,1.163c1.35,1.57.92,5.148.773,6.118a1.815,1.815,0,0,1,.477,1.355c-.118,1.581-.569,1.922-1.06,2.157-.184.089-.218.1-.256.311A5.332,5.332,0,0,1,18.7,19.3a1.4,1.4,0,0,0-.322.982c0,1.932.541,2.94,3.9,4.182a.4.4,0,0,1,.094.709A13.254,13.254,0,0,1,14.637,27.652Zm-6.621-2.71a12.482,12.482,0,0,0,13.242,0c-2.811-1.154-3.693-2.317-3.693-4.656a2.171,2.171,0,0,1,.464-1.439,4.588,4.588,0,0,0,.786-2.068,1.1,1.1,0,0,1,.7-.892c.252-.121.511-.245.6-1.459,0-.618-.278-.786-.29-.793a.431.431,0,0,1-.214-.434c.2-1.075.531-4.429-.551-5.689a2.83,2.83,0,0,0-2.125-.874.673.673,0,0,1-.108-.013.646.646,0,0,1-.337-.212c-.22-.377-2.137-1.135-4.782-.065-2.614,1.058-2.62,3.327-2.281,5.406.112.774.234,1.443.235,1.447a.4.4,0,0,1-.229.44h0s-.274.169-.274.816c.091,1.182.35,1.307.6,1.428a1.1,1.1,0,0,1,.7.892,4.581,4.581,0,0,0,.785,2.068,2.166,2.166,0,0,1,.464,1.439C11.71,22.626,10.828,23.789,8.016,24.942Z" transform="translate(-1.287 -0.952)" stroke="#000" stroke-width="1"/>
  </g>
</svg>
